<svg width="375" height="811" viewBox="0 0 375 811" fill="none" xmlns="http://www.w3.org/2000/svg">
<g filter="url(#filter0_d_61385_185)">
<mask id="mask0_61385_185" style="mask-type:alpha" maskUnits="userSpaceOnUse" x="-1" y="0" width="375" height="812">
<rect x="-0.5" y="0.5" width="374" height="811" fill="#202024" stroke="black"/>
</mask>
<g mask="url(#mask0_61385_185)">
<path d="M374 168.101V-310.699L186.478 -418.486L-1.04468 -310.699V168.101L186.478 275.894L374 168.101Z" fill="url(#paint0_linear_61385_185)"/>
<g style="mix-blend-mode:luminosity" opacity="0.4">
<path d="M0.836627 61.3931V168.797L94.1275 222.505L187.418 168.797V61.3931L94.1275 7.68577L0.836627 61.3931Z" fill="url(#paint1_linear_61385_185)"/>
<path d="M0.836627 -46.0166V61.3877L94.1275 115.095L187.418 61.3877V-46.0166L94.1275 -99.7239L0.836627 -46.0166Z" fill="url(#paint2_linear_61385_185)"/>
<path d="M280.709 -99.6961V7.70821L187.418 61.4155L94.1274 7.70821V-99.6961L187.418 -153.403L280.709 -99.6961Z" fill="url(#paint3_linear_61385_185)"/>
<path d="M187.418 168.797V61.3927L280.709 7.68539L374 61.3927V168.797L280.709 222.504L187.418 168.797Z" fill="url(#paint4_linear_61385_185)"/>
<path d="M374 -46.0166V61.3877L280.709 115.095L187.418 61.3877V-46.0166L280.709 -99.7239L374 -46.0166Z" fill="url(#paint5_linear_61385_185)"/>
<path d="M280.709 222.527V115.123L187.418 61.4155L94.1274 115.123L94.1274 222.527L187.418 276.235L280.709 222.527Z" fill="url(#paint6_linear_61385_185)"/>
</g>
</g>
</g>
<defs>
<filter id="filter0_d_61385_185" x="-5" y="0" width="383" height="284.234" filterUnits="userSpaceOnUse" color-interpolation-filters="sRGB">
<feFlood flood-opacity="0" result="BackgroundImageFix"/>
<feColorMatrix in="SourceAlpha" type="matrix" values="0 0 0 0 0 0 0 0 0 0 0 0 0 0 0 0 0 0 127 0" result="hardAlpha"/>
<feOffset dy="4"/>
<feGaussianBlur stdDeviation="2"/>
<feComposite in2="hardAlpha" operator="out"/>
<feColorMatrix type="matrix" values="0 0 0 0 0 0 0 0 0 0 0 0 0 0 0 0 0 0 0.25 0"/>
<feBlend mode="normal" in2="BackgroundImageFix" result="effect1_dropShadow_61385_185"/>
<feBlend mode="normal" in="SourceGraphic" in2="effect1_dropShadow_61385_185" result="shape"/>
</filter>
<linearGradient id="paint0_linear_61385_185" x1="-68.9497" y1="58.9385" x2="435.115" y2="232.357" gradientUnits="userSpaceOnUse">
<stop stop-color="#FF008E"/>
<stop offset="1" stop-color="#FFCD1E"/>
</linearGradient>
<linearGradient id="paint1_linear_61385_185" x1="94.1275" y1="217.565" x2="1.23833" y2="59.047" gradientUnits="userSpaceOnUse">
<stop stop-color="#6D3FD7"/>
<stop offset="1" stop-color="#FF008E" stop-opacity="0"/>
</linearGradient>
<linearGradient id="paint2_linear_61385_185" x1="94.1275" y1="110.155" x2="1.23831" y2="-48.3627" gradientUnits="userSpaceOnUse">
<stop stop-color="#6D3FD7"/>
<stop offset="1" stop-color="#FF008E" stop-opacity="0"/>
</linearGradient>
<linearGradient id="paint3_linear_61385_185" x1="94.1275" y1="-105.732" x2="280.421" y2="6.68569" gradientUnits="userSpaceOnUse">
<stop stop-color="#FF008E" stop-opacity="0"/>
<stop offset="1" stop-color="#FFCD1E"/>
</linearGradient>
<linearGradient id="paint4_linear_61385_185" x1="374" y1="174.833" x2="187.706" y2="62.4152" gradientUnits="userSpaceOnUse">
<stop stop-color="#FF008E" stop-opacity="0"/>
<stop offset="1" stop-color="#FFCD1E"/>
</linearGradient>
<linearGradient id="paint5_linear_61385_185" x1="280.709" y1="110.155" x2="373.598" y2="-48.3627" gradientUnits="userSpaceOnUse">
<stop stop-color="#6D3FD7"/>
<stop offset="1" stop-color="#FF008E" stop-opacity="0"/>
</linearGradient>
<linearGradient id="paint6_linear_61385_185" x1="187.418" y1="66.3552" x2="280.307" y2="224.873" gradientUnits="userSpaceOnUse">
<stop stop-color="#6D3FD7"/>
<stop offset="1" stop-color="#FF008E" stop-opacity="0"/>
</linearGradient>
</defs>
</svg>
